<svg xmlns="http://www.w3.org/2000/svg" width="18" height="18" viewBox="0 0 32 32"><path fill="#999" d="M15.193,0c-8.3751,0-15.193,6.8382-15.193,15.238,0,8.3999,6.8179,15.238,15.193,15.238,3.5768,0,6.8491-1.2498,9.4481-3.3333,1.314,1.772,3.832,4.857,5.223,4.857,1.935,0,2.136-0.201,2.136-2.143,0-1.401-3.128-3.925-4.89-5.238,2.037-2.593,3.276-5.832,3.276-9.381,0-8.3998-6.818-15.238-15.193-15.238zm0,3c6.7323,0,12.202,5.4857,12.202,12.238,0,6.7524-5.4694,12.19-12.202,12.19-6.7323,0-12.154-5.4381-12.154-12.19-0.0004-6.7523,5.4215-12.238,12.154-12.238z"/></svg>